<?xml version="1.0" encoding="UTF-8"?>
<svg id="Layer_2" data-name="Layer 2" xmlns="http://www.w3.org/2000/svg" viewBox="0 0 208.9 265.07">
  <defs>
    <style>
      .cls-1 {
        fill: #fff;
      }
    </style>
  </defs>
  <g id="Layer_2-2" data-name="Layer 2">
    <g id="Layer_1_copy" data-name="Layer 1 copy">
      <path class="cls-1" d="m119.52,36.98c-24.12.53-47.41,1.58-75.36,35.6-7.85,9.56-8.62,13.25-8.62,13.25l-7.05-1.1c.17,2.34.05,5.26-.4,8.95l3.1,10.67,3.18,10.99c.25.86-.02,1.72-.59,2.28-.56.56-1.41.84-2.3.57l-11.87-3.54-11.88-3.54c-.87-.26-1.43-.95-1.59-1.73-.17-.79.06-1.65.75-2.24l8.69-7.45,7.44-6.38c.45-2.77.67-6.28-.26-9.47l-22.76-3.55L84.13,0l124.77,30.36-23.38,24.36s-29.8-18.53-66-17.74Z"/>
      <path class="cls-1" d="m53.52,114.25c.68,13.72,6.21,22.91,14.4,31.37,8.92,9.23,17.46,15.73,30.86,21.72,6.72,3,13.73,4.46,20.15,6.76,6.41,2.31,12.08,4.82,16.99,7.52,4.91,2.71,8.72,5.92,11.43,9.63s4.06,8.17,4.06,13.38-1.2,9.17-3.61,12.48c-2.4,3.31-5.67,5.82-9.77,7.52-4.11,1.7-8.98,2.55-14.59,2.55-6.42,0-12.03-1.25-16.84-3.76-4.81-2.5-8.57-5.96-11.28-10.37-2.7-4.41-4.16-9.52-4.36-15.34h-48.11c.6,14.64,4.4,26.97,11.42,36.99,7.02,10.03,16.59,17.59,28.72,22.7,12.13,5.12,25.72,7.67,40.75,7.67,16.24,0,29.97-2.91,41.2-8.72s19.75-13.53,25.56-23.15c5.82-9.63,8.72-20.15,8.72-31.58,0-13.03-2.7-23.5-8.11-31.43-5.42-7.91-12.59-14.33-21.51-19.24s-18.79-9.17-29.62-12.78c-6.42-2-12.38-4.01-17.89-6.02-5.52-2-10.33-4.16-14.44-6.46s-6.59-5.08-8.09-8.82c-2.07-5.16-3.17-10.42-3.64-17.64-15.19,2.1-29.28,7.21-42.4,15.02h0Z"/>
      <path class="cls-1" d="m185.52,74.36v26.22c-60.53-26.08-77.21-26.08-132,0v-26.22c33.43-34.43,98.67-34.73,132,0Z"/>
    </g>
  </g>
</svg>