<?xml version="1.0" encoding="UTF-8"?>
<svg id="Layer_2" data-name="Layer 2" xmlns="http://www.w3.org/2000/svg" viewBox="0 0 1365.74 326.91">
  <defs>
    <style>
      .cls-1 {
        fill: #fff;
        stroke-width: 0px;
      }
    </style>
  </defs>
  <g id="Layer_2-2" data-name="Layer 2">
    <g id="Layer_1_copy" data-name="Layer 1 copy">
      <path class="cls-1" d="M119.52,36.98c-24.12.53-47.41,1.58-75.36,35.6-7.85,9.56-8.62,13.25-8.62,13.25l-7.05-1.1c.17,2.34.05,5.26-.4,8.95l3.1,10.67,3.18,10.99c.25.86-.02,1.72-.59,2.28-.56.56-1.41.84-2.3.57l-11.87-3.54-11.88-3.54c-.87-.26-1.43-.95-1.59-1.73-.17-.79.06-1.65.75-2.24l8.69-7.45,7.44-6.38c.45-2.77.67-6.28-.26-9.47l-22.76-3.55L84.13,0l124.77,30.36-23.38,24.36s-29.8-18.53-66-17.74Z"/>
      <path class="cls-1" d="M53.52,114.25c.68,13.72,6.21,22.91,14.4,31.37,8.92,9.23,17.46,15.73,30.86,21.72,6.72,3,13.73,4.46,20.15,6.76,6.41,2.31,12.08,4.82,16.99,7.52,4.91,2.71,8.72,5.92,11.43,9.63,2.71,3.71,4.06,8.17,4.06,13.38s-1.2,9.17-3.61,12.48c-2.4,3.31-5.67,5.82-9.77,7.52-4.11,1.7-8.98,2.55-14.59,2.55-6.42,0-12.03-1.25-16.84-3.76-4.81-2.5-8.57-5.96-11.28-10.37-2.7-4.41-4.16-9.52-4.36-15.34h-48.11c.6,14.64,4.4,26.97,11.42,36.99,7.02,10.03,16.59,17.59,28.72,22.7,12.13,5.12,25.72,7.67,40.75,7.67,16.24,0,29.97-2.91,41.2-8.72,11.23-5.81,19.75-13.53,25.56-23.15,5.82-9.63,8.72-20.15,8.72-31.58,0-13.03-2.7-23.5-8.11-31.43-5.42-7.91-12.59-14.33-21.51-19.24-8.92-4.91-18.79-9.17-29.62-12.78-6.42-2-12.38-4.01-17.89-6.02-5.52-2-10.33-4.16-14.44-6.46s-6.59-5.08-8.09-8.82c-2.07-5.16-3.17-10.42-3.64-17.64-15.19,2.1-29.28,7.21-42.4,15.02Z"/>
      <path class="cls-1" d="M185.52,74.36v26.22c-60.53-26.08-77.21-26.08-132,0v-26.22c33.43-34.43,98.67-34.73,132,0Z"/>
      <path class="cls-1" d="M285.07,262c-15.68,0-29.5-3.42-41.45-10.25-11.96-6.83-21.25-16.18-27.89-28.04-6.63-11.86-9.95-25.32-9.95-40.4s3.32-29.59,9.95-41.75c6.63-12.16,15.93-21.66,27.89-28.49,11.96-6.83,25.77-10.25,41.45-10.25,19.9,0,36.63,5.23,50.2,15.68,13.57,10.45,22.16,24.92,25.77,43.41h-48.24c-1.41-6.43-4.62-11.46-9.65-15.07-5.03-3.62-11.15-5.43-18.39-5.43-6.83,0-12.71,1.66-17.64,4.97-4.93,3.32-8.7,8.04-11.31,14.17-2.61,6.13-3.92,13.41-3.92,21.86,0,6.23.75,11.86,2.26,16.88,1.51,5.03,3.66,9.3,6.48,12.81,2.81,3.52,6.28,6.28,10.4,8.29,4.12,2.01,8.69,3.01,13.72,3.01,4.62,0,8.89-.8,12.81-2.41,3.92-1.6,7.18-3.97,9.8-7.08,2.61-3.11,4.42-6.78,5.43-11h48.24c-3.62,18.09-12.26,32.46-25.93,43.11-13.67,10.66-30.35,15.98-50.04,15.98Z"/>
      <path class="cls-1" d="M372.74,258.91V43.91h47v85.7c4.79-7.17,11.28-13.09,19.46-17.77,8.18-4.68,17.76-7.02,28.75-7.02,12.77,0,23.45,2.69,32.04,8.06,8.58,5.37,15.02,13.14,19.31,23.29,4.29,10.15,6.44,22.6,6.44,37.33v85.4h-44v-82.01c0-11.22-2.43-19.88-7.29-25.99-4.86-6.11-12.79-9.16-23.78-9.16-6.55,0-12.42,1.55-17.6,4.66-5.18,3.11-9.19,7.36-12.05,12.77-2.85,5.41-4.28,11.92-4.28,19.53v80.21h-44Z"/>
      <path class="cls-1" d="M612.81,263.59c-14.62,0-27.79-3.41-39.5-10.21-11.72-6.81-20.93-16.17-27.64-28.09-6.71-11.91-10.06-25.49-10.06-40.71s3.35-29.44,10.06-41.46c6.71-12.02,15.92-21.38,27.64-28.09,11.72-6.71,24.88-10.06,39.5-10.06s27.99,3.36,39.51,10.06c11.52,6.71,20.68,16.03,27.49,27.94,6.81,11.92,10.22,25.68,10.22,41.31s-3.41,29.09-10.22,41.01c-6.81,11.92-15.97,21.28-27.49,28.09-11.52,6.81-24.69,10.21-39.51,10.21ZM612.81,224.54c5.81,0,11.06-1.5,15.77-4.51,4.7-3,8.46-7.51,11.26-13.52,2.8-6.01,4.21-13.42,4.21-22.23s-1.4-16.22-4.21-22.23c-2.81-6.01-6.56-10.51-11.26-13.52-4.71-3.01-9.97-4.51-15.77-4.51s-11.37,1.5-16.07,4.51c-4.71,3-8.41,7.51-11.12,13.52s-4.06,13.42-4.06,22.23,1.35,16.22,4.06,22.23,6.41,10.51,11.12,13.52c4.7,3.01,10.06,4.51,16.07,4.51Z"/>
      <path class="cls-1" d="M775.03,263.59c-14.62,0-27.79-3.41-39.5-10.21s-20.93-16.17-27.64-28.09c-6.71-11.91-10.06-25.49-10.06-40.71s3.35-29.44,10.06-41.46c6.71-12.02,15.92-21.38,27.64-28.09,11.72-6.71,24.88-10.06,39.5-10.06s27.99,3.36,39.51,10.06c11.52,6.71,20.68,16.03,27.49,27.94,6.81,11.92,10.22,25.68,10.22,41.31s-3.41,29.09-10.22,41.01c-6.81,11.92-15.97,21.28-27.49,28.09-11.52,6.81-24.69,10.21-39.51,10.21ZM775.03,224.54c5.81,0,11.06-1.5,15.77-4.51,4.7-3,8.46-7.51,11.26-13.52,2.8-6.01,4.21-13.42,4.21-22.23s-1.4-16.22-4.21-22.23c-2.81-6.01-6.56-10.51-11.26-13.52-4.71-3.01-9.97-4.51-15.77-4.51s-11.37,1.5-16.07,4.51c-4.71,3-8.41,7.51-11.12,13.52-2.7,6.01-4.06,13.42-4.06,22.23s1.35,16.22,4.06,22.23c2.7,6.01,6.41,10.51,11.12,13.52,4.7,3.01,10.06,4.51,16.07,4.51Z"/>
      <path class="cls-1" d="M864.74,258.91V43.91h44v215h-44Z"/>
      <path class="cls-1" d="M897.74,326.91v-38h12.26c6.18,0,10.51-1.26,13.01-3.77,2.49-2.52,3.74-6.48,3.74-11.91V108.91h44v163.8c0,13.25-2.27,23.83-6.8,31.77-4.54,7.93-10.89,13.65-19.06,17.16-8.18,3.51-17.69,5.27-28.52,5.27h-18.62Z"/>
      <path class="cls-1" d="M1061.32,263.59c-14.62,0-27.79-3.41-39.5-10.21-11.72-6.81-20.93-16.17-27.64-28.09-6.71-11.91-10.06-25.49-10.06-40.71s3.35-29.44,10.06-41.46c6.71-12.02,15.92-21.38,27.64-28.09,11.72-6.71,24.88-10.06,39.5-10.06s27.99,3.36,39.51,10.06c11.52,6.71,20.68,16.03,27.49,27.94,6.81,11.92,10.22,25.68,10.22,41.31s-3.41,29.09-10.22,41.01c-6.81,11.92-15.97,21.28-27.49,28.09-11.52,6.81-24.69,10.21-39.51,10.21ZM1061.32,224.54c5.81,0,11.06-1.5,15.77-4.51,4.7-3,8.46-7.51,11.26-13.52,2.8-6.01,4.21-13.42,4.21-22.23s-1.4-16.22-4.21-22.23c-2.81-6.01-6.56-10.51-11.26-13.52-4.71-3.01-9.97-4.51-15.77-4.51s-11.37,1.5-16.07,4.51c-4.71,3-8.41,7.51-11.12,13.52-2.7,6.01-4.06,13.42-4.06,22.23s1.35,16.22,4.06,22.23c2.7,6.01,6.41,10.51,11.12,13.52,4.7,3.01,10.06,4.51,16.07,4.51Z"/>
      <path class="cls-1" d="M1240.5,262.5c-7.24,0-13.74-.9-19.51-2.69-5.77-1.79-10.85-4.33-15.25-7.61-4.4-3.28-8.26-7.02-11.59-11.2l-4.4,17.92h-39.01V43.91h44v84.21c4.5-6.77,10.46-12.34,17.89-16.72,7.43-4.38,16.62-6.57,27.57-6.57,13.49,0,25.52,3.43,36.08,10.3,10.56,6.87,19.02,16.23,25.37,28.07,6.35,11.85,9.53,25.34,9.53,40.46s-3.13,28.42-9.39,40.46c-6.26,12.05-14.67,21.45-25.23,28.22-10.56,6.77-22.59,10.15-36.08,10.15ZM1231.36,224.24c7.41,0,13.92-1.75,19.53-5.26,5.6-3.5,10.06-8.21,13.37-14.12,3.3-5.91,4.96-12.77,4.96-20.58s-1.65-14.42-4.96-20.43-7.76-10.76-13.37-14.27c-5.61-3.5-12.12-5.26-19.53-5.26s-13.67,1.76-19.38,5.26c-5.71,3.51-10.17,8.26-13.37,14.27-3.21,6.01-4.81,12.92-4.81,20.73s1.6,14.67,4.81,20.58c3.2,5.91,7.66,10.57,13.37,13.97,5.71,3.41,12.17,5.11,19.38,5.11Z"/>
      <rect class="cls-1" x="1321.74" y="217.91" width="44" height="44"/>
      <rect class="cls-1" x="926.74" y="44.91" width="44" height="44"/>
    </g>
  </g>
</svg>